<?xml version="1.0" encoding="UTF-8"?>
<svg viewBox="0 0 67.72 67.72" xmlns="http://www.w3.org/2000/svg" xmlns:xlink="http://www.w3.org/1999/xlink">
  <defs>
    <linearGradient id="f">
      <stop stop-color="#0c1e7b" offset="0"/>
      <stop stop-color="#121138" offset="1"/>
    </linearGradient>
    <linearGradient id="e" x1="5.23" x2="15.26" y1="123.62" y2="133.65" gradientUnits="userSpaceOnUse">
      <stop stop-color="#091143" offset="0"/>
      <stop stop-color="#0d185f" stop-opacity="0" offset="1"/>
    </linearGradient>
    <linearGradient id="c" x1="5.23" x2="15.26" y1="123.62" y2="133.65" gradientTransform="translate(15.13 17.1)" gradientUnits="userSpaceOnUse">
      <stop stop-color="#091143" offset="0"/>
      <stop stop-color="#0d185f" stop-opacity=".18" offset="1"/>
    </linearGradient>
    <linearGradient id="b" x1="364.16" x2="364.16" y1="428.64" y2="621.09" gradientTransform="translate(-300)" gradientUnits="userSpaceOnUse" xlink:href="#f"/>
    <linearGradient id="d" x1="122.63" x2="63.4" y1="149.54" y2="98.2" gradientTransform="translate(-79.37)" gradientUnits="userSpaceOnUse">
      <stop stop-color="#ecffff" offset="0"/>
      <stop stop-color="#ecffff" offset="1"/>
    </linearGradient>
  </defs>
  <path transform="matrix(.26458 0 0 .26458 17.11 -101.12)" d="M-28.74 427.2a18.95 18.95 0 0 0-18.99 18.94V558.8a18.95 18.95 0 0 0 18.99 18.95H-1.1v46.72l64.29-46.72h90.26a18.95 18.95 0 0 0 19-18.98V446.18a18.95 18.95 0 0 0-19-18.98z" fill="url(#b)"/>
  <path transform="translate(17.11 -101.12)" d="m2.65 125.44l10.44 10.44 6.33-5.31-10.02-10.03-6.75 4.9z" fill="url(#e)"/>
  <path d="M22.34 16.4l1.02 2.98 3.15.04-2.53 1.89.94 3-2.58-1.81-2.57 1.82.93-3.01-2.52-1.89 3.15-.04z" fill="#ecffff" paint-order="markers fill stroke"/>
  <path transform="translate(17.11 -101.12)" d="M10.01 107.55c-13.74-.05-21.94 7.73-20.22 19.84 1.91 14.25 15.73 27.6 32.92 30.94 17.24 2.95 26.21-3.61 27.22-17.02v-.19c-.2-4.56-1.76-8.98-4.3-13.05v3.46a13.07 13.07 0 0 1 1.44 4.85v.16c.66 4.51.08 8.16-1.44 10.94-2.52 2.95-1.81 4.03-6.2 5.38-4.45 1.83-10.47 1.79-17.22-.1-13.84-3.28-26.85-15.8-27.84-27.05-1.06-12.05 6.95-18.34 21.33-15.85 3.12.54 6.33 1.66 9.46 3.17h4.09c-3.55-2-7.26-3.76-11.19-4.74-2.61-.66-5.5-.74-8.05-.74z" fill="url(#d)" paint-order="markers fill stroke"/>
  <path d="M62.74 26.95v3.45a13.07 13.07 0 0 1 1.45 4.86v.16c.65 4.51.08 8.16-1.45 10.94l-2.43 2.1-3.77 3.28c-4.45 1.82-10.47 1.79-17.21-.1a40.67 40.67 0 0 1-15.64-7.81c.37.65.81 1.28 1.32 1.88l8.24 9.68c2.12.77 4.32 1.38 6.57 1.82 17.24 2.95 26.22-3.61 27.22-17.02v-.2c-.2-4.55-1.76-8.97-4.3-13.04z" fill="#a7b4b4" paint-order="markers fill stroke"/>
  <path transform="matrix(.26458 0 0 .26458 17.11 -101.12)" d="M89.06 482.8v94.94h64.4a18.95 18.95 0 0 0 18.98-18.98V482.8z" fill="url(#b)"/>
  <path transform="translate(17.11 -101.12)" d="M38.77 127.3L17.8 142.55l10.31 10.31h.29l17.24-13.12v-5.59z" fill="url(#c)"/>
  <path d="M42.92 16.75l3.15 9.3 9.82.13-7.87 5.87 2.91 9.37-8.01-5.66-8.02 5.66 2.91-9.37-7.86-5.87 9.81-.13z" fill="#ecffff" paint-order="markers fill stroke"/>
</svg>
