<svg xmlns="http://www.w3.org/2000/svg" xmlns:xlink="http://www.w3.org/1999/xlink" viewBox="0 0 67.72 67.72"><defs/><defs><linearGradient id="c" x1="5.23" x2="15.26" y1="123.62" y2="133.64999" gradientUnits="userSpaceOnUse" xlink:href="#a"><stop offset="0" stop-color="#091143" stop-opacity=".2004376"/><stop offset="1" stop-color="#0d185f" stop-opacity="0"/></linearGradient><linearGradient id="a" x1="20.36" x2="28.486" y1="140.72" y2="150.688" gradientUnits="userSpaceOnUse"><stop offset="0" stop-color="#091143" stop-opacity=".422"/><stop offset="1" stop-color="#0d185f" stop-opacity="0"/></linearGradient><linearGradient id="d" x1="60.37" x2="1.14" y1="48.42" y2="-2.92" gradientUnits="userSpaceOnUse"><stop offset="0" stop-color="#ecffff"/></linearGradient><linearGradient id="b" x1="64.16" x2="64.16" y1="428.64" y2="621.09" gradientUnits="userSpaceOnUse"><stop offset="0" stop-color="#4495ec"/><stop offset="1" stop-color="#3665b6"/></linearGradient></defs><path fill="url(#b)" d="M-28.74 427.2a18.95 18.95 0 00-18.99 18.94V558.8a18.95 18.95 0 0018.99 18.95H-1.1v46.72l64.29-46.72h90.26a18.95 18.95 0 0019-18.98V446.18a18.95 18.95 0 00-19-18.98z" transform="translate(17.11 -101.12) scale(.26458)"/><path fill="url(#c)" d="M2.65 125.44l10.44 10.44 6.33-5.31L9.4 120.54l-6.75 4.9z" transform="translate(17.11 -101.12)"/><path fill="#ecffff" d="M22.34 16.4l1.02 2.98 3.15.04-2.53 1.89.94 3-2.58-1.81-2.57 1.82.93-3.01-2.52-1.89 3.15-.04z" paint-order="markers fill stroke"/><path fill="url(#d)" d="M27.119 6.43C13.379 6.38 5.18 14.16 6.9 26.27c1.91 14.25 15.73 27.601 32.92 30.941 17.24 2.95 26.209-3.611 27.219-17.021V40c-.2-4.56-1.759-8.981-4.299-13.051v3.461a13.07 13.07 0 011.439 4.85v.16c.66 4.51.081 8.159-1.439 10.939l-.006.357a5.014 5.014 0 01-5.021 5.021h-1.168c-4.456 1.832-10.475 1.792-17.225-.098-13.84-3.28-26.85-15.801-27.84-27.051-1.06-12.05 6.95-18.34 21.33-15.85 3.12.54 6.329 1.66 9.459 3.17h4.09c-3.55-2-7.259-3.76-11.189-4.74-2.61-.66-5.501-.74-8.051-.74z"/><path fill="#bfc9c9" d="M62.74 26.949V30.4a13.07 13.07 0 011.449 4.859v.16c.65 4.51.081 8.159-1.449 10.939l-.006.006v.352a5.014 5.014 0 01-5.021 5.021h-1.172l-.002.002c-4.45 1.82-10.469 1.79-17.209-.1a40.67 40.67 0 01-15.641-7.811c.37.65.81 1.281 1.32 1.881l8.24 9.68a43.99 43.99 0 006.57 1.82c17.24 2.95 26.219-3.611 27.219-17.021v-.199c-.2-4.55-1.759-8.971-4.299-13.041z"/><path fill="url(#a)" d="M38.77 127.3L17.8 142.55l10.31 10.31h.29l17.24-13.12v-5.59z" opacity=".30046068" transform="translate(17.11 -101.12)"/><path fill="#ecffff" d="M42.92 16.75l3.15 9.3 9.82.13-7.87 5.87 2.91 9.37-8.01-5.66-8.02 5.66 2.91-9.37-7.86-5.87 9.81-.13z" paint-order="markers fill stroke"/></svg>
